{
	"asset":{
		"version":"2.0",
		"generator":"Blockbench 4.7.4 glTF exporter"
	},
	"scenes":[
		{"nodes":[1],"name":"blockbench_export"}
	],
	"scene":0,
	"nodes":[
		{"name":"cube","mesh":0},
		{"children":[0]}
	],
	"bufferViews":[
		{"buffer":0,"byteOffset":0,"byteLength":624,"target":34962,"byteStride":12},
		{"buffer":0,"byteOffset":624,"byteLength":624,"target":34962,"byteStride":12},
		{"buffer":0,"byteOffset":1248,"byteLength":416,"target":34962,"byteStride":8},
		{"buffer":0,"byteOffset":1664,"byteLength":24,"target":34963},
		{"buffer":0,"byteOffset":1688,"byteLength":24,"target":34963},
		{"buffer":0,"byteOffset":1712,"byteLength":12,"target":34963},
		{"buffer":0,"byteOffset":1724,"byteLength":12,"target":34963},
		{"buffer":0,"byteOffset":1736,"byteLength":12,"target":34963},
		{"buffer":0,"byteOffset":1748,"byteLength":60,"target":34963}
	],
	"buffers":[
		{
			"byteLength":1808,
			"uri":"data:application/octet-stream;base64,"
		}
	],
	"accessors":[
		{"bufferView":0,"componentType":5126,"count":52,"max":[0.5,0.0625,0.5],"min":[-0.5,0,-0.5],"type":"VEC3"},
		{"bufferView":1,"componentType":5126,"count":52,"max":[1,1,1],"min":[-1,-1,-0.7071067690849304],"type":"VEC3"},
		{"bufferView":2,"componentType":5126,"count":52,"max":[1,1],"min":[0,0],"type":"VEC2"},
		{"bufferView":3,"componentType":5123,"count":12,"max":[7],"min":[0],"type":"SCALAR"},
		{"bufferView":4,"componentType":5123,"count":12,"max":[15],"min":[8],"type":"SCALAR"},
		{"bufferView":5,"componentType":5123,"count":6,"max":[19],"min":[16],"type":"SCALAR"},
		{"bufferView":6,"componentType":5123,"count":6,"max":[23],"min":[20],"type":"SCALAR"},
		{"bufferView":7,"componentType":5123,"count":6,"max":[27],"min":[24],"type":"SCALAR"},
		{"bufferView":8,"componentType":5123,"count":30,"max":[51],"min":[28],"type":"SCALAR"}
	],
	"materials":[
		{
			"pbrMetallicRoughness":{"metallicFactor":0,"roughnessFactor":1,"baseColorTexture":{"index":0}},
			"alphaMode":"MASK",
			"alphaCutoff":0.05,
			"doubleSided":true
		},
		{
			"pbrMetallicRoughness":{"metallicFactor":0,"roughnessFactor":1,"baseColorTexture":{"index":1}},
			"alphaMode":"MASK",
			"alphaCutoff":0.05,
			"doubleSided":true
		}
	],
	"textures":[
		{"sampler":0,"source":0,"name":"uv.png"},
		{"sampler":1,"source":1,"name":"uv_arrow.png"}
	],
	"samplers":[
		{"magFilter":9728,"minFilter":9728,"wrapS":33071,"wrapT":33071},
		{"magFilter":9728,"minFilter":9728,"wrapS":33071,"wrapT":33071}
	],
	"images":[
		{
			"mimeType":"image/png",
			"uri": "#side"
		},
		{
			"mimeType":"image/png",
			"uri": "#top"
		}
	],
	"meshes":[
		{
			"primitives":[
				{"mode":4,"attributes":{"POSITION":0,"NORMAL":1,"TEXCOORD_0":2},"indices":3,"material":0},
				{"mode":4,"attributes":{"POSITION":0,"NORMAL":1,"TEXCOORD_0":2},"indices":4,"material":1},
				{"mode":4,"attributes":{"POSITION":0,"NORMAL":1,"TEXCOORD_0":2},"indices":5,"material":0},
				{"mode":4,"attributes":{"POSITION":0,"NORMAL":1,"TEXCOORD_0":2},"indices":6,"material":1},
				{"mode":4,"attributes":{"POSITION":0,"NORMAL":1,"TEXCOORD_0":2},"indices":7,"material":0},
				{"mode":4,"attributes":{"POSITION":0,"NORMAL":1,"TEXCOORD_0":2},"indices":8,"material":1}
			]
		}
	]
}
